<svg xmlns="http://www.w3.org/2000/svg" xmlns:xlink="http://www.w3.org/1999/xlink" width="512" zoomAndPan="magnify" viewBox="0 0 384 383.999986" height="512" preserveAspectRatio="xMidYMid meet" version="1.0"><path fill="#00a63e" d="M 281.957031 249.925781 L 294.875 249.925781 C 293.910156 252.539062 292.84375 255.109375 291.683594 257.640625 C 290.519531 260.171875 289.261719 262.652344 287.914062 265.089844 C 286.5625 267.523438 285.121094 269.902344 283.589844 272.226562 C 282.058594 274.554688 280.4375 276.816406 278.734375 279.019531 C 277.03125 281.222656 275.246094 283.355469 273.378906 285.421875 C 271.515625 287.488281 269.570312 289.480469 267.554688 291.398438 C 265.535156 293.316406 263.449219 295.15625 261.289062 296.914062 C 259.132812 298.675781 256.910156 300.351562 254.625 301.941406 C 252.339844 303.53125 250 305.03125 247.601562 306.445312 C 245.199219 307.855469 242.75 309.175781 240.253906 310.402344 C 237.753906 311.628906 235.210938 312.757812 232.625 313.789062 C 230.039062 314.824219 227.417969 315.753906 224.761719 316.589844 C 222.105469 317.421875 219.421875 318.152344 216.710938 318.78125 C 213.996094 319.410156 211.265625 319.933594 208.511719 320.355469 C 205.761719 320.777344 202.996094 321.09375 200.222656 321.304688 C 197.445312 321.511719 194.667969 321.617188 191.882812 321.617188 C 189.097656 321.617188 186.320312 321.507812 183.542969 321.296875 C 180.765625 321.085938 178.003906 320.765625 175.25 320.34375 C 172.5 319.921875 169.769531 319.394531 167.058594 318.765625 C 164.34375 318.132812 161.660156 317.402344 159.007812 316.566406 C 156.351562 315.730469 153.730469 314.796875 151.144531 313.761719 C 148.558594 312.726562 146.019531 311.597656 143.519531 310.371094 C 141.019531 309.140625 138.574219 307.820312 136.175781 306.40625 C 133.777344 304.992188 131.433594 303.492188 129.152344 301.898438 C 126.867188 300.304688 124.648438 298.628906 122.492188 296.867188 C 120.332031 295.109375 118.246094 293.265625 116.230469 291.347656 C 114.214844 289.425781 112.273438 287.433594 110.410156 285.367188 C 108.542969 283.296875 106.761719 281.164062 105.058594 278.960938 C 103.355469 276.757812 101.738281 274.492188 100.207031 272.167969 C 98.679688 269.839844 97.238281 267.457031 95.890625 265.023438 C 94.539062 262.585938 93.285156 260.105469 92.125 257.574219 C 90.964844 255.042969 89.902344 252.46875 88.9375 249.859375 L 101.949219 249.859375 C 103.023438 249.851562 103.992188 249.53125 104.855469 248.890625 C 108.027344 246.53125 117.652344 240.097656 124.339844 238.613281 C 125.59375 238.355469 126.808594 238.472656 127.988281 238.96875 C 130.246094 239.972656 133.832031 242.363281 138.195312 247.984375 C 138.660156 248.578125 139.234375 249.035156 139.914062 249.363281 C 140.589844 249.691406 141.304688 249.855469 142.058594 249.859375 L 162.761719 249.859375 L 170.386719 262.105469 C 170.652344 262.53125 170.980469 262.902344 171.363281 263.226562 C 171.746094 263.546875 172.167969 263.804688 172.628906 264 C 173.089844 264.191406 173.570312 264.308594 174.070312 264.355469 C 174.566406 264.398438 175.0625 264.367188 175.550781 264.257812 C 176.039062 264.152344 176.5 263.972656 176.933594 263.722656 C 177.367188 263.472656 177.753906 263.164062 178.09375 262.792969 C 178.429688 262.425781 178.707031 262.015625 178.917969 261.558594 C 179.128906 261.105469 179.265625 260.632812 179.332031 260.136719 L 187.308594 194.480469 L 195.511719 272.507812 C 195.574219 273.050781 195.71875 273.570312 195.953125 274.0625 C 196.183594 274.558594 196.492188 275 196.871094 275.394531 C 197.25 275.785156 197.683594 276.105469 198.171875 276.351562 C 198.65625 276.601562 199.171875 276.761719 199.710938 276.839844 C 199.941406 276.839844 200.136719 276.839844 200.359375 276.839844 C 200.851562 276.839844 201.332031 276.765625 201.800781 276.617188 C 202.269531 276.46875 202.707031 276.257812 203.109375 275.976562 C 203.511719 275.699219 203.867188 275.363281 204.167969 274.976562 C 204.472656 274.589844 204.710938 274.167969 204.882812 273.707031 L 213.820312 249.925781 L 241.863281 249.925781 C 242.5625 249.925781 243.234375 249.777344 243.871094 249.484375 C 244.507812 249.1875 245.054688 248.773438 245.511719 248.242188 C 248.867188 244.375 258.980469 233.863281 265.28125 231.539062 C 265.71875 231.390625 266.140625 231.4375 266.539062 231.667969 C 268.1875 232.734375 272.546875 236.355469 277.550781 247.136719 C 277.75 247.550781 278 247.933594 278.308594 248.277344 C 278.613281 248.621094 278.960938 248.917969 279.351562 249.164062 C 279.742188 249.410156 280.15625 249.597656 280.601562 249.730469 C 281.042969 249.859375 281.496094 249.925781 281.957031 249.925781 Z M 281.957031 249.925781 " fill-opacity="1" fill-rule="nonzero"/><path fill="#00a63e" d="M 301.695312 211.785156 C 301.695312 212.785156 301.695312 213.75 301.695312 214.726562 C 301.484375 223.382812 300.246094 231.890625 297.976562 240.246094 L 284.996094 240.246094 C 279.921875 230.230469 275.082031 225.644531 271.851562 223.542969 C 271.125 223.078125 270.355469 222.703125 269.539062 222.414062 C 268.726562 222.128906 267.890625 221.941406 267.03125 221.847656 C 266.175781 221.753906 265.316406 221.761719 264.460938 221.867188 C 263.605469 221.972656 262.773438 222.175781 261.960938 222.472656 C 253.789062 225.480469 243.617188 235.984375 239.742188 240.261719 L 210.511719 240.261719 C 210.015625 240.257812 209.535156 240.328125 209.0625 240.472656 C 208.589844 240.617188 208.148438 240.832031 207.742188 241.109375 C 207.335938 241.390625 206.980469 241.726562 206.675781 242.113281 C 206.371094 242.503906 206.132812 242.929688 205.957031 243.390625 L 202.996094 251.226562 L 192.460938 151.027344 C 192.394531 150.433594 192.230469 149.871094 191.960938 149.339844 C 191.691406 148.8125 191.335938 148.347656 190.894531 147.945312 C 190.453125 147.546875 189.953125 147.238281 189.398438 147.023438 C 188.84375 146.808594 188.269531 146.699219 187.671875 146.695312 L 187.613281 146.695312 C 187.023438 146.699219 186.453125 146.804688 185.898438 147.011719 C 185.347656 147.222656 184.851562 147.523438 184.410156 147.910156 C 183.964844 148.300781 183.605469 148.753906 183.328125 149.277344 C 183.050781 149.796875 182.871094 150.347656 182.796875 150.933594 L 171.296875 245.300781 L 169.527344 242.457031 C 169.09375 241.738281 168.511719 241.167969 167.78125 240.757812 C 167.050781 240.34375 166.261719 240.136719 165.421875 240.136719 L 144.332031 240.136719 C 140.328125 235.351562 136.160156 231.960938 131.921875 230.082031 C 130.398438 229.417969 128.8125 229 127.15625 228.835938 C 125.5 228.671875 123.863281 228.765625 122.238281 229.117188 C 113.972656 230.957031 103.953125 237.625 100.402344 240.136719 L 85.867188 240.136719 C 84.683594 235.875 83.78125 231.554688 83.164062 227.175781 C 82.574219 222.898438 82.230469 218.601562 82.125 214.285156 C 82.125 213.449219 82.125 212.605469 82.125 211.769531 C 82.125 151.21875 131.382812 101.957031 191.910156 101.957031 C 252.4375 101.957031 301.695312 151.21875 301.695312 211.785156 Z M 301.695312 211.785156 " fill-opacity="1" fill-rule="nonzero"/><path fill="#00a63e" d="M 291.652344 123.976562 L 299.164062 116.457031 L 300.929688 118.222656 C 301.375 118.667969 301.859375 119.066406 302.382812 119.417969 C 302.910156 119.765625 303.464844 120.0625 304.046875 120.304688 C 304.628906 120.546875 305.230469 120.730469 305.847656 120.851562 C 306.46875 120.976562 307.09375 121.035156 307.722656 121.035156 C 308.355469 121.035156 308.980469 120.976562 309.597656 120.851562 C 310.21875 120.730469 310.820312 120.546875 311.402344 120.304688 C 311.984375 120.0625 312.539062 119.765625 313.0625 119.417969 C 313.589844 119.066406 314.074219 118.667969 314.519531 118.222656 C 314.964844 117.773438 315.363281 117.289062 315.714844 116.765625 C 316.066406 116.238281 316.363281 115.6875 316.601562 115.101562 C 316.84375 114.519531 317.027344 113.917969 317.148438 113.300781 C 317.273438 112.679688 317.335938 112.054688 317.335938 111.421875 C 317.335938 110.792969 317.273438 110.167969 317.148438 109.546875 C 317.027344 108.929688 316.84375 108.328125 316.601562 107.746094 C 316.363281 107.160156 316.066406 106.609375 315.714844 106.082031 C 315.363281 105.558594 314.964844 105.074219 314.519531 104.625 L 289.355469 79.453125 C 288.910156 79.007812 288.421875 78.609375 287.898438 78.257812 C 287.375 77.90625 286.820312 77.609375 286.238281 77.367188 C 285.652344 77.125 285.050781 76.941406 284.433594 76.816406 C 283.8125 76.695312 283.1875 76.632812 282.554688 76.632812 C 281.925781 76.628906 281.300781 76.691406 280.679688 76.816406 C 280.0625 76.9375 279.460938 77.121094 278.875 77.363281 C 278.292969 77.601562 277.738281 77.898438 277.214844 78.25 C 276.6875 78.601562 276.203125 79 275.753906 79.445312 C 275.308594 79.894531 274.910156 80.378906 274.558594 80.90625 C 274.207031 81.429688 273.914062 81.984375 273.671875 82.566406 C 273.429688 83.152344 273.246094 83.753906 273.125 84.371094 C 273 84.992188 272.941406 85.617188 272.941406 86.25 C 272.941406 86.882812 273.003906 87.507812 273.125 88.125 C 273.25 88.746094 273.433594 89.347656 273.675781 89.929688 C 273.917969 90.515625 274.214844 91.066406 274.566406 91.59375 C 274.917969 92.117188 275.316406 92.601562 275.761719 93.050781 L 277.527344 94.8125 L 268.898438 103.441406 C 264.507812 100.3125 259.941406 97.460938 255.203125 94.890625 C 250.464844 92.320312 245.585938 90.046875 240.570312 88.070312 C 235.554688 86.097656 230.4375 84.433594 225.214844 83.085938 C 219.996094 81.738281 214.710938 80.714844 209.367188 80.011719 L 209.367188 67.25 L 225.417969 67.25 C 225.78125 67.25 226.144531 67.214844 226.5 67.144531 C 226.859375 67.074219 227.207031 66.96875 227.542969 66.828125 C 227.882812 66.6875 228.203125 66.515625 228.503906 66.3125 C 228.808594 66.109375 229.089844 65.878906 229.347656 65.621094 C 229.605469 65.363281 229.835938 65.082031 230.039062 64.78125 C 230.242188 64.476562 230.414062 64.15625 230.554688 63.820312 C 230.691406 63.480469 230.796875 63.132812 230.871094 62.777344 C 230.941406 62.417969 230.976562 62.054688 230.976562 61.691406 L 230.976562 43.648438 C 230.976562 43.285156 230.941406 42.921875 230.871094 42.5625 C 230.796875 42.207031 230.691406 41.859375 230.554688 41.519531 C 230.414062 41.183594 230.242188 40.863281 230.039062 40.558594 C 229.835938 40.257812 229.605469 39.976562 229.347656 39.71875 C 229.089844 39.460938 228.808594 39.230469 228.503906 39.027344 C 228.203125 38.824219 227.882812 38.652344 227.542969 38.511719 C 227.207031 38.371094 226.859375 38.265625 226.5 38.195312 C 226.144531 38.125 225.78125 38.089844 225.417969 38.089844 L 158.433594 38.089844 C 158.070312 38.089844 157.707031 38.125 157.347656 38.195312 C 156.992188 38.265625 156.644531 38.371094 156.308594 38.511719 C 155.96875 38.652344 155.648438 38.824219 155.347656 39.027344 C 155.042969 39.230469 154.761719 39.460938 154.503906 39.71875 C 154.246094 39.976562 154.015625 40.257812 153.8125 40.558594 C 153.609375 40.863281 153.4375 41.183594 153.296875 41.519531 C 153.160156 41.859375 153.054688 42.207031 152.980469 42.5625 C 152.910156 42.921875 152.875 43.285156 152.875 43.648438 L 152.875 61.691406 C 152.875 62.054688 152.910156 62.417969 152.980469 62.777344 C 153.054688 63.132812 153.160156 63.480469 153.296875 63.820312 C 153.4375 64.15625 153.609375 64.476562 153.8125 64.78125 C 154.015625 65.082031 154.246094 65.363281 154.503906 65.621094 C 154.761719 65.878906 155.042969 66.109375 155.347656 66.3125 C 155.648438 66.515625 155.96875 66.6875 156.308594 66.828125 C 156.644531 66.96875 156.992188 67.074219 157.347656 67.144531 C 157.707031 67.214844 158.070312 67.25 158.433594 67.25 L 174.460938 67.25 L 174.460938 80.011719 C 169.117188 80.714844 163.832031 81.738281 158.613281 83.085938 C 153.390625 84.433594 148.273438 86.097656 143.257812 88.070312 C 138.242188 90.046875 133.363281 92.320312 128.625 94.890625 C 123.886719 97.460938 119.320312 100.3125 114.929688 103.441406 L 106.292969 94.8125 L 108.066406 93.050781 C 108.511719 92.601562 108.910156 92.117188 109.261719 91.59375 C 109.613281 91.066406 109.910156 90.515625 110.152344 89.929688 C 110.390625 89.347656 110.574219 88.746094 110.699219 88.125 C 110.820312 87.507812 110.882812 86.882812 110.882812 86.25 C 110.882812 85.621094 110.820312 84.992188 110.699219 84.375 C 110.574219 83.753906 110.394531 83.152344 110.152344 82.570312 C 109.910156 81.988281 109.613281 81.433594 109.265625 80.90625 C 108.914062 80.382812 108.515625 79.898438 108.070312 79.449219 C 107.621094 79.003906 107.136719 78.605469 106.613281 78.253906 C 106.085938 77.90625 105.53125 77.609375 104.949219 77.367188 C 104.367188 77.125 103.765625 76.941406 103.144531 76.820312 C 102.527344 76.695312 101.902344 76.636719 101.269531 76.636719 C 100.640625 76.636719 100.015625 76.695312 99.394531 76.820312 C 98.777344 76.945312 98.175781 77.125 97.589844 77.367188 C 97.007812 77.609375 96.453125 77.90625 95.929688 78.257812 C 95.40625 78.609375 94.917969 79.007812 94.472656 79.453125 L 69.300781 104.625 C 68.871094 105.074219 68.484375 105.5625 68.148438 106.085938 C 67.8125 106.609375 67.53125 107.164062 67.300781 107.742188 C 67.070312 108.320312 66.898438 108.917969 66.785156 109.527344 C 66.671875 110.140625 66.621094 110.757812 66.625 111.382812 C 66.632812 112.003906 66.699219 112.621094 66.824219 113.230469 C 66.953125 113.839844 67.136719 114.433594 67.378906 115.007812 C 67.617188 115.582031 67.914062 116.125 68.261719 116.644531 C 68.609375 117.160156 69 117.640625 69.441406 118.078125 C 69.882812 118.519531 70.363281 118.914062 70.878906 119.261719 C 71.394531 119.609375 71.941406 119.902344 72.515625 120.144531 C 73.089844 120.386719 73.679688 120.570312 74.292969 120.695312 C 74.902344 120.820312 75.515625 120.886719 76.140625 120.894531 C 76.761719 120.898438 77.378906 120.84375 77.992188 120.730469 C 78.605469 120.617188 79.199219 120.445312 79.777344 120.214844 C 80.359375 119.984375 80.910156 119.703125 81.433594 119.367188 C 81.957031 119.027344 82.441406 118.644531 82.890625 118.214844 L 84.65625 116.449219 L 92.175781 123.96875 C 90.78125 125.554688 89.421875 127.175781 88.097656 128.832031 C 86.777344 130.484375 85.5 132.167969 84.257812 133.882812 C 83.019531 135.597656 81.820312 137.339844 80.664062 139.113281 C 79.507812 140.882812 78.390625 142.683594 77.320312 144.507812 C 76.25 146.332031 75.222656 148.183594 74.242188 150.058594 C 73.257812 151.933594 72.320312 153.828125 71.429688 155.746094 C 70.535156 157.667969 69.691406 159.605469 68.890625 161.566406 C 68.09375 163.523438 67.339844 165.503906 66.632812 167.496094 C 65.929688 169.492188 65.273438 171.503906 64.664062 173.53125 C 64.054688 175.558594 63.496094 177.597656 62.984375 179.652344 C 62.472656 181.707031 62.007812 183.769531 61.597656 185.84375 C 61.183594 187.921875 60.820312 190.003906 60.507812 192.097656 C 60.195312 194.191406 59.929688 196.289062 59.71875 198.394531 C 59.503906 200.5 59.339844 202.613281 59.230469 204.726562 C 59.117188 206.839844 59.054688 208.953125 59.042969 211.070312 C 59.03125 213.1875 59.070312 215.300781 59.160156 217.414062 C 59.25 219.53125 59.390625 221.640625 59.582031 223.75 C 59.773438 225.855469 60.011719 227.957031 60.304688 230.054688 C 60.59375 232.152344 60.933594 234.238281 61.324219 236.320312 C 61.714844 238.398438 62.15625 240.46875 62.644531 242.527344 C 63.136719 244.585938 63.671875 246.632812 64.261719 248.664062 C 64.847656 250.699219 65.484375 252.71875 66.167969 254.71875 C 66.851562 256.722656 67.582031 258.707031 68.359375 260.675781 C 69.136719 262.644531 69.960938 264.59375 70.832031 266.519531 C 71.707031 268.449219 72.621094 270.355469 73.585938 272.242188 C 74.546875 274.125 75.554688 275.988281 76.605469 277.824219 C 77.65625 279.660156 78.75 281.46875 79.890625 283.253906 C 81.027344 285.039062 82.207031 286.792969 83.429688 288.523438 C 84.648438 290.25 85.910156 291.949219 87.214844 293.617188 C 88.519531 295.285156 89.859375 296.917969 91.238281 298.523438 C 92.621094 300.125 94.039062 301.695312 95.496094 303.230469 C 96.949219 304.765625 98.441406 306.265625 99.96875 307.730469 C 101.496094 309.195312 103.058594 310.625 104.65625 312.011719 C 106.25 313.402344 107.878906 314.753906 109.539062 316.066406 C 111.199219 317.378906 112.890625 318.648438 114.609375 319.878906 C 116.332031 321.113281 118.082031 322.300781 119.859375 323.449219 C 121.636719 324.597656 123.441406 325.703125 125.269531 326.761719 C 127.101562 327.824219 128.957031 328.839844 130.835938 329.8125 C 132.714844 330.785156 134.613281 331.714844 136.539062 332.597656 C 138.460938 333.476562 140.402344 334.3125 142.367188 335.101562 C 144.332031 335.890625 146.3125 336.632812 148.308594 337.328125 C 150.308594 338.023438 152.324219 338.667969 154.351562 339.265625 C 156.382812 339.867188 158.425781 340.414062 160.480469 340.914062 C 162.535156 341.417969 164.601562 341.867188 166.679688 342.269531 C 168.757812 342.671875 170.84375 343.023438 172.9375 343.324219 C 175.03125 343.628906 177.132812 343.878906 179.238281 344.082031 C 181.34375 344.285156 183.453125 344.433594 185.566406 344.535156 C 187.679688 344.636719 189.792969 344.6875 191.910156 344.6875 C 194.027344 344.6875 196.140625 344.636719 198.253906 344.535156 C 200.367188 344.433594 202.476562 344.285156 204.582031 344.082031 C 206.691406 343.878906 208.789062 343.628906 210.882812 343.324219 C 212.976562 343.023438 215.0625 342.671875 217.140625 342.269531 C 219.21875 341.867188 221.285156 341.417969 223.339844 340.914062 C 225.394531 340.414062 227.4375 339.867188 229.46875 339.265625 C 231.496094 338.667969 233.511719 338.023438 235.511719 337.328125 C 237.507812 336.632812 239.488281 335.890625 241.453125 335.101562 C 243.417969 334.3125 245.359375 333.476562 247.28125 332.597656 C 249.207031 331.714844 251.105469 330.785156 252.988281 329.8125 C 254.867188 328.839844 256.71875 327.824219 258.550781 326.761719 C 260.382812 325.703125 262.183594 324.597656 263.960938 323.449219 C 265.742188 322.300781 267.488281 321.113281 269.210938 319.878906 C 270.929688 318.648438 272.621094 317.378906 274.28125 316.066406 C 275.941406 314.753906 277.570312 313.402344 279.164062 312.011719 C 280.761719 310.625 282.324219 309.195312 283.851562 307.730469 C 285.378906 306.265625 286.871094 304.765625 288.324219 303.230469 C 289.78125 301.695312 291.199219 300.125 292.582031 298.523438 C 293.960938 296.917969 295.304688 295.285156 296.605469 293.617188 C 297.910156 291.949219 299.171875 290.25 300.390625 288.523438 C 301.613281 286.792969 302.792969 285.039062 303.929688 283.253906 C 305.070312 281.46875 306.164062 279.660156 307.214844 277.824219 C 308.265625 275.988281 309.273438 274.125 310.234375 272.242188 C 311.199219 270.355469 312.117188 268.449219 312.988281 266.519531 C 313.859375 264.59375 314.683594 262.644531 315.460938 260.675781 C 316.238281 258.707031 316.96875 256.722656 317.652344 254.71875 C 318.335938 252.71875 318.972656 250.699219 319.558594 248.664062 C 320.148438 246.632812 320.6875 244.585938 321.175781 242.527344 C 321.664062 240.46875 322.105469 238.398438 322.496094 236.320312 C 322.886719 234.238281 323.226562 232.152344 323.515625 230.054688 C 323.808594 227.957031 324.050781 225.855469 324.238281 223.75 C 324.429688 221.640625 324.570312 219.53125 324.660156 217.414062 C 324.75 215.300781 324.789062 213.1875 324.777344 211.070312 C 324.765625 208.953125 324.703125 206.839844 324.589844 204.726562 C 324.480469 202.613281 324.316406 200.5 324.101562 198.394531 C 323.890625 196.289062 323.628906 194.191406 323.3125 192.097656 C 323 190.003906 322.636719 187.921875 322.222656 185.84375 C 321.8125 183.769531 321.347656 181.707031 320.835938 179.652344 C 320.324219 177.597656 319.765625 175.558594 319.15625 173.53125 C 318.546875 171.503906 317.890625 169.492188 317.1875 167.496094 C 316.480469 165.503906 315.730469 163.523438 314.929688 161.566406 C 314.128906 159.605469 313.285156 157.667969 312.390625 155.746094 C 311.5 153.828125 310.5625 151.933594 309.578125 150.058594 C 308.597656 148.183594 307.570312 146.332031 306.5 144.507812 C 305.429688 142.683594 304.3125 140.882812 303.15625 139.113281 C 302 137.339844 300.800781 135.597656 299.5625 133.882812 C 298.320312 132.167969 297.042969 130.484375 295.722656 128.832031 C 294.398438 127.175781 293.039062 125.554688 291.644531 123.96875 Z M 309.261719 229.148438 C 300.835938 286.375 251.425781 330.453125 191.910156 330.453125 C 132.140625 330.453125 82.558594 286.019531 74.457031 228.445312 C 73.804688 223.828125 73.429688 219.1875 73.328125 214.523438 C 73.328125 213.613281 73.289062 212.707031 73.289062 211.792969 C 73.289062 146.371094 126.503906 93.140625 191.910156 93.140625 C 257.316406 93.140625 310.53125 146.347656 310.53125 211.785156 C 310.53125 212.847656 310.53125 213.90625 310.492188 214.957031 C 310.363281 219.710938 309.953125 224.441406 309.261719 229.148438 Z M 309.261719 229.148438 " fill-opacity="1" fill-rule="nonzero"/></svg>